<svg width="68" height="68" viewBox="0 0 68 68" fill="none" xmlns="http://www.w3.org/2000/svg">
<path fill-rule="evenodd" clip-rule="evenodd" d="M25.0307 40.318L26.8452 38.4774C26.8452 38.4774 27.0998 38.2677 27.5796 37.9488C27.7191 37.8557 27.8819 37.7515 28.0704 37.6361L28.0783 37.6309C28.1071 37.6122 28.1396 37.591 28.1732 37.574C28.2512 37.5286 28.3307 37.4817 28.413 37.4332C28.4973 37.3835 28.5846 37.332 28.6763 37.2786H28.6824C28.6897 37.2724 28.6897 37.2724 28.6946 37.2724V37.2662C28.7007 37.26 28.7191 37.2476 28.7436 37.2414C29.3556 36.8977 30.1022 36.5216 30.9688 36.1655C31.1144 36.1034 31.2601 36.0426 31.4119 35.988C31.5411 35.9352 31.6748 35.8877 31.8084 35.8403C31.8317 35.8321 31.8549 35.8238 31.8782 35.8155C32.6909 35.5201 33.5881 35.2496 34.5587 35.0473C34.7227 35.0039 34.8868 34.9729 35.0557 34.9431C35.3776 34.8748 35.7044 34.8252 36.0446 34.7768C36.3482 34.7334 36.6566 34.6974 36.9724 34.6713C37.0875 34.6527 37.2025 34.6465 37.3176 34.6415C37.5061 34.6229 37.6934 34.6105 37.888 34.6043C39.7925 34.5112 41.8843 34.685 44.1156 35.2806C44.3457 35.3414 44.5819 35.4097 44.8194 35.4829C45.3947 35.6554 45.9773 35.8589 46.566 36.0922C46.7349 36.1593 46.8989 36.2275 47.063 36.3007L47.1272 36.3281C47.2811 36.3935 47.4358 36.4592 47.5905 36.5278C47.6299 36.546 47.6693 36.5641 47.7088 36.5822C47.8449 36.6446 47.9814 36.7072 48.118 36.7736C48.1655 36.797 48.2134 36.8203 48.2614 36.8437C48.3916 36.9071 48.5229 36.9711 48.6517 37.0391C49.6456 37.543 50.659 38.1399 51.6835 38.8349C51.6937 38.8411 51.702 38.8477 51.7106 38.8544C51.7174 38.8598 51.7243 38.8653 51.7325 38.8708C51.768 38.9019 51.7863 38.9143 51.7863 38.9143C52.1988 39.191 52.6113 39.4926 53.0299 39.8128C53.4906 40.1652 53.8902 40.5178 54.3293 40.9051C54.456 41.0168 54.586 41.1315 54.7216 41.2499C55.3275 41.7786 53.9148 40.2906 53.9148 40.2906L53.9087 40.2843L43.3702 29.5993L43.3518 29.5758L43.3457 29.5696L42.648 28.8609L35.7717 21.8952C35.7717 21.8952 35.7656 21.889 35.7472 21.8716C35.7411 21.8592 35.7289 21.8468 35.7227 21.8406L33.1646 19.2519C32.3396 18.4154 31.3935 17.7763 30.38 17.3395C27.1181 15.9074 23.1891 16.5477 20.5208 19.2519L5.19777 34.7892C3.60782 36.4 2.74123 38.4725 2.60782 40.5809C2.55274 41.3429 2.6017 42.1111 2.74123 42.8681C2.94269 44.0349 4.12117 45.7457 4.33886 46.0617C4.35259 46.0817 4.3625 46.0961 4.3681 46.1044C4.3681 46.1044 4.99556 46.8737 5.33592 47.2327C8.97412 51.0556 14.8661 51.0556 18.5043 47.2327L23.8023 41.6658H23.8099L23.8214 41.6524L25.3001 40.0999C25.2109 40.1731 25.1211 40.246 25.0307 40.318ZM2.74123 42.8681C2.75475 42.8754 2.76828 42.8827 2.78182 42.89C2.76826 42.8831 2.75473 42.8758 2.74123 42.8681Z" fill="#FF63AF"/>
<path fill-rule="evenodd" clip-rule="evenodd" d="M54.3584 41.5498L61.9135 33.7342C63.6204 31.9673 64.475 29.6556 64.475 27.3414C64.475 25.0234 63.6204 22.7105 61.9135 20.9435C61.5042 20.5213 61.0649 20.1536 60.6029 19.8341C60.5909 19.8217 60.5789 19.8155 60.567 19.8032C60.561 19.797 60.555 19.7908 60.549 19.7908C57.1569 17.4729 52.5379 17.8579 49.5551 20.9435L42 28.7591L42.6823 29.4649L42.6882 29.4711L53.0119 40.1568L53.0179 40.163L54.3584 41.5498Z" fill="#1F87FE"/>
<path fill-rule="evenodd" clip-rule="evenodd" d="M54.4729 41.5999L54.7217 41.3122L54.3548 40.9031C53.375 40.0137 52.524 39.068 51.5735 38.3924C51.5735 38.3924 51.5559 38.3813 51.5208 38.3494C41.5866 31.3214 33.1084 34.6616 29.5372 36.7376C29.5138 36.7438 29.4962 36.7548 29.4903 36.761C29.4845 36.7671 29.4845 36.7671 29.4786 36.7733C28.3421 37.4366 27.7217 37.9612 27.7217 37.9612L30.9336 41.3321L36.7851 47.4731C37.5049 48.2274 38.3173 48.8183 39.1858 49.2433C39.1928 49.2433 39.1975 49.2495 39.2034 49.2495C42.3696 50.8145 46.2616 50.2175 48.8766 47.4731L54.4729 41.5999Z" fill="#3632A8"/>
<path fill-rule="evenodd" clip-rule="evenodd" d="M53.925 41.5999V40.9218L53.5032 40.5651C52.5666 39.7667 51.6357 39.0665 50.726 38.4591C50.726 38.4591 50.7092 38.4481 50.6767 38.4205C41.1802 32.1014 33.0756 35.1052 29.6605 36.9716C29.6382 36.976 29.6214 36.987 29.6158 36.9926V36.9981C29.6113 36.9981 29.6113 36.9981 29.6046 37.0036H29.599C28.5181 37.5999 27.925 38.0715 27.925 38.0715L30.9966 41.1018C35.0875 38.7705 43.7806 35.4167 53.4976 41.3425C53.642 41.4198 53.7807 41.5071 53.925 41.5999Z" fill="black" fill-opacity="0.2"/>
<path fill-rule="evenodd" clip-rule="evenodd" d="M54.4 41.25C48.2114 34.0188 46.7066 27.8222 46.4568 24.2L42 28.7062L42.6846 29.3984L42.6906 29.4044L53.0489 39.8839L53.0549 39.8899L54.4 41.25Z" fill="black" fill-opacity="0.2"/>
<path fill-rule="evenodd" clip-rule="evenodd" d="M28.5828 36.9249V36.9172C28.575 36.9249 28.575 36.9249 28.5673 36.9327C28.575 36.9249 28.575 36.9249 28.5828 36.9249Z" fill="#F8F8FF"/>
</svg>
